<svg xmlns="http://www.w3.org/2000/svg" viewBox="0 0 64 64" role="img" aria-labelledby="title">
  <title>Applied Leverage</title>
  <defs>
    <linearGradient id="g" x1="0%" x2="100%" y1="0%" y2="100%">
      <stop offset="0%" stop-color="#d6ff59" />
      <stop offset="100%" stop-color="#6de4ff" />
    </linearGradient>
  </defs>
  <rect width="64" height="64" rx="18" fill="#0b0d0e" />
  <rect x="6" y="6" width="52" height="52" rx="14" fill="url(#g)" opacity="0.14" />
  <path
    d="M18 47V17h10.9c3.7 0 6.6.9 8.8 2.7 2.2 1.8 3.3 4.3 3.3 7.6 0 3.3-1.1 5.8-3.3 7.6-2.2 1.8-5.1 2.7-8.8 2.7h-4.8V47H18Zm10.2-14.1c1.8 0 3.2-.4 4.1-1.3.9-.9 1.4-2 1.4-3.5 0-1.5-.5-2.6-1.4-3.4-.9-.8-2.3-1.2-4.1-1.2h-4v9.4h4Zm15.4 14.1V17h6.1v24.8H62V47H43.6Z"
    fill="#f3f4ed"
  />
</svg>
