<svg xmlns="http://www.w3.org/2000/svg" viewBox="0 0 64 64">
  <defs>
    <linearGradient id="panel" x1="10" x2="54" y1="8" y2="58" gradientUnits="userSpaceOnUse">
      <stop stop-color="#14181b"/>
      <stop offset="1" stop-color="#0b0d0e"/>
    </linearGradient>
    <radialGradient id="glow" cx="0" cy="0" r="1" gradientTransform="translate(49 13) rotate(131.281) scale(26.6247)" gradientUnits="userSpaceOnUse">
      <stop stop-color="#6de4ff" stop-opacity=".22"/>
      <stop offset="1" stop-color="#6de4ff" stop-opacity="0"/>
    </radialGradient>
    <linearGradient id="accent" x1="24" x2="50" y1="17" y2="45" gradientUnits="userSpaceOnUse">
      <stop stop-color="#d6ff59"/>
      <stop offset="1" stop-color="#6de4ff"/>
    </linearGradient>
  </defs>
  <rect width="64" height="64" rx="16" fill="#0b0d0e"/>
  <rect x="1" y="1" width="62" height="62" rx="15" fill="url(#panel)" stroke="#2a3134"/>
  <circle cx="49" cy="13" r="18" fill="url(#glow)"/>
  <path d="M14 46V18h15.5c10.2 0 16.5 5.2 16.5 14 0 8.6-6.1 14-16.5 14H14Zm9.4-7.8h5.4c4.8 0 7.6-2.2 7.6-6.2 0-4.2-2.8-6.4-7.6-6.4h-5.4v12.6Z" fill="#f3f4ed"/>
  <path d="M41.2 46 27 18h9.9l12 28h-7.7Z" fill="url(#accent)"/>
</svg>
